<svg width="76" height="24" viewBox="0 0 76 24" fill="none" xmlns="http://www.w3.org/2000/svg">
<g clip-path="url(#clip0_93_127)">
<path d="M66.2518 1.61401C61.2162 1.61401 57.1348 5.6307 57.1348 10.5838C57.1348 15.537 61.2162 19.5536 66.2518 19.5536C71.2874 19.5536 75.3689 15.537 75.3689 10.5838C75.3689 5.6307 71.2874 1.61401 66.2518 1.61401ZM66.2518 13.8467C64.6027 13.8467 63.2658 12.386 63.2658 10.5838C63.2658 8.78162 64.6027 7.32101 66.2518 7.32101C67.9009 7.32101 69.2437 8.78162 69.2437 10.5838C69.2437 12.386 67.9068 13.8467 66.2518 13.8467Z" fill="#FF6114"/>
<path d="M10.4717 9.66514L6.02503 9.6887V0.83667H0V23.647H6.02503V14.2413H10.4717V23.647H16.4908V0.83667H10.4717V9.66514Z" fill="#FF6114"/>
<path d="M25.3959 6.073C20.8845 6.073 17.5627 9.53018 17.5627 14.925C17.5627 16.7626 18.0221 19.2362 19.041 20.7262C19.8773 21.9454 21.2555 23.2234 23.576 23.7417C25.5254 24.1775 28.3465 24.154 31.574 22.8583L31.6035 18.0112C29.8189 19.407 26.4501 20.1314 24.7421 19.0301C23.9942 18.5471 23.6231 17.6224 23.4346 16.7096H31.7978C33.0346 9.90711 29.8013 6.073 25.39 6.073H25.3959ZM25.0661 9.98367C26.3794 9.98367 26.6209 11.8036 26.5856 13.1051L23.2521 13.1228C23.2933 11.6622 23.6231 9.98367 25.0661 9.98367Z" fill="#FF6114"/>
<path d="M41.9632 19.1653C40.0668 18.912 38.8418 17.3631 38.8771 15.0426C38.8889 14.0708 39.1127 12.6455 40.3201 11.662C41.2624 10.8963 43.2001 10.5901 45.0788 11.3262V6.57925C43.0999 5.77238 39.2658 5.83128 37.016 7.25067C35.308 8.32257 32.8698 10.6077 32.8698 15.0838C32.8698 19.5599 34.8722 21.8804 36.8217 22.9817C39.684 24.6013 43.5947 24.0183 45.2909 23.0877V18.4585C44.7078 18.9061 43.3355 19.3478 41.9691 19.1653H41.9632Z" fill="#FF6114"/>
<path d="M66.2518 21.0085C64.0432 21.0085 61.6933 21.945 60.6332 23.6471H71.8705C70.8104 21.945 68.4604 21.0085 66.2518 21.0085Z" fill="#FF6114"/>
<path d="M53.5008 19.1124C52.6704 18.7826 52.1286 18.2054 52.1286 16.3678V11.5207H56.1924V6.29668H52.1874V0.000732422L46.1978 2.93374V6.15533C46.1978 8.31681 48.3887 9.13546 48.3887 9.13546C46.8162 10.2604 46.1978 11.4972 46.1978 14.012V17.3809C46.1978 19.7131 46.8397 21.3386 48.3357 22.6344C49.9023 23.989 53.2711 24.4778 56.6164 23.3823V18.6177C55.9568 19.1065 54.4844 19.5011 53.5008 19.1124Z" fill="#FF6114"/>
</g>
<defs>
<clipPath id="clip0_93_127">
<rect width="76" height="24" fill="white"/>
</clipPath>
</defs>
</svg>
