<svg width="24" height="24" viewBox="0 0 24 24" fill="none" xmlns="http://www.w3.org/2000/svg">
<g clip-path="url(#clip0_13653_95723)">
<path d="M21.7408 0H2.25917C1.01147 0 0 1.01147 0 2.25917V21.7408C0 22.9885 1.01147 24 2.25917 24H21.7408C22.9885 24 24 22.9885 24 21.7408V2.25917C24 1.01147 22.9885 0 21.7408 0Z" fill="#FF6114"/>
<path d="M13.3892 9.69521L10.6108 9.71014V4.17831H6.84717V18.4333H10.6108V12.5565H13.3892V18.4333H17.1544V4.17831H13.3892V9.69521Z" fill="black"/>
<path d="M12.0008 19.3307C10.6207 19.3307 9.15275 19.9162 8.48926 20.9795H15.5123C14.8488 19.9162 13.3808 19.3307 12.0008 19.3307Z" fill="black"/>
</g>
<defs>
<clipPath id="clip0_13653_95723">
<rect width="24" height="24" fill="white"/>
</clipPath>
</defs>
</svg>
